<svg id="Copyright" xmlns="http://www.w3.org/2000/svg" width="12.403" height="12.403" viewBox="0 0 12.403 12.403">
  <g id="Groupe_6180" transform="translate(0 0)">
    <path id="Tracé_6775" data-name="Tracé 6775" d="M84.471,342.507c-.068-.114-.138-.246-.191-.362-.026-.051-.048-.1-.068-.139a.837.837,0,0,0-.052-.094c-.029-.042-.046-.039-.044.038a5.168,5.168,0,0,1-.222-.805,5.766,5.766,0,0,1,.129-2.69,1.96,1.96,0,0,0,.115-.276l.07-.169.031-.072c.011-.022.02-.04.029-.055-.017.06.02-.009.066-.094a5.312,5.312,0,0,0,.137,4.717Z" transform="translate(-82.825 -333.978)" fill="#ffec30"/>
    <path id="Tracé_6776" data-name="Tracé 6776" d="M143.871,340.168a4.677,4.677,0,0,1,.117-4.238c-.054.114-.12.248-.163.366a1.124,1.124,0,0,0-.044.128.627.627,0,0,0-.021.091c-.005.045.01.052.057,0a4.51,4.51,0,0,0-.22.676,4.565,4.565,0,0,0-.114.765,4.315,4.315,0,0,0,.191,1.543,1.034,1.034,0,0,0,.06.251l.055.149.023.065c.007.02.014.036.018.051C143.794,339.963,143.833,340.07,143.871,340.168Z" transform="translate(-141.763 -332.14)" fill="#ffec30"/>
    <path id="Tracé_6777" data-name="Tracé 6777" d="M161.849,778.894l-.016-.008c-.059-.062-.12-.133-.185-.2s-.124-.151-.182-.229l-.081-.118a1.3,1.3,0,0,1-.072-.115c-.012-.02-.023-.04-.033-.061A5.312,5.312,0,0,0,161.849,778.894Z" transform="translate(-159.417 -769.262)" fill="#ffec30"/>
    <path id="Tracé_6778" data-name="Tracé 6778" d="M207.261,254.75a.071.071,0,0,0-.007.018c-.051.056-.1.12-.156.185l-.156.2c-.048.069-.1.134-.146.2l-.046.06A4.686,4.686,0,0,1,207.261,254.75Z" transform="translate(-204.362 -251.898)" fill="#ffec30"/>
    <path id="Tracé_6779" data-name="Tracé 6779" d="M192.742,102.49a5.316,5.316,0,0,0-2.192,1.606l.023-.029a5.311,5.311,0,0,1,1.837-1.435Q192.574,102.555,192.742,102.49Z" transform="translate(-188.349 -101.396)" fill="#ffec30"/>
    <path id="Tracé_6780" data-name="Tracé 6780" d="M263.5,890.5a2.264,2.264,0,0,1-.866-.457c-.139-.109-.271-.229-.4-.348a5.3,5.3,0,0,0,1.042.647Q263.391,890.418,263.5,890.5Z" transform="translate(-259.211 -879.503)" fill="#ffec30"/>
    <path id="Tracé_6781" data-name="Tracé 6781" d="M296.119,159.74a7.271,7.271,0,0,1-.75.388,4.048,4.048,0,0,0-.419.237,4.674,4.674,0,0,1,.93-.581C295.959,159.767,296.039,159.752,296.119,159.74Z" transform="translate(-291.543 -157.985)" fill="#ffec30"/>
    <path id="Tracé_6782" data-name="Tracé 6782" d="M613.189,926.74l-.1.017.064-.011Z" transform="translate(-606.008 -916.125)" fill="#ffec30"/>
    <path id="Tracé_6783" data-name="Tracé 6783" d="M614.816,608.281l-.116.179a1.447,1.447,0,0,0,.069-.142C614.8,608.284,614.811,608.276,614.816,608.281Z" transform="translate(-607.6 -601.344)" fill="#ffec30"/>
    <path id="Tracé_6784" data-name="Tracé 6784" d="M586.233,320.148c.293-.256.606-.516.919-.778-.111.095-.207.18-.286.251-.23.192-.444.369-.677.565Z" transform="translate(-579.419 -315.771)" fill="#ffec30"/>
    <path id="Tracé_6785" data-name="Tracé 6785" d="M769.7,538.49c-.025.069-.051.14-.085.228h0s.007-.02.01-.031Q769.657,538.589,769.7,538.49Z" transform="translate(-760.72 -532.36)" fill="#ffec30"/>
    <path id="Tracé_6786" data-name="Tracé 6786" d="M766.878,420.1l-.068-.093c.007,0,.009,0,.042.041s.069.1.1.144a.244.244,0,0,1,.039.075c.01.019.019.038.028.057A1.364,1.364,0,0,0,766.878,420.1Z" transform="translate(-757.953 -415.249)" fill="#ffec30"/>
    <path id="Tracé_6787" data-name="Tracé 6787" d="M161.939,159.345a.04.04,0,0,1,0,.025v0l.032-.031A.042.042,0,0,0,161.939,159.345Zm.686-.26.1.156c.009.011.017.023.026.037A2.093,2.093,0,0,0,162.625,159.085Zm.206.853,0,.005a.3.3,0,0,0,.037-.039Zm.16-.259-.016-.034c-.007-.007-.01-.007-.013-.006l.026.045a.041.041,0,0,1,0,.018v0S163,159.691,162.991,159.679Zm0,0-.016-.034c-.007-.007-.01-.007-.013-.006l.026.045a.041.041,0,0,1,0,.018v0S163,159.691,162.991,159.679Zm-.16.259,0,.005a.3.3,0,0,0,.037-.039Zm-.206-.853.1.156c.009.011.017.023.026.037A2.093,2.093,0,0,0,162.625,159.085Zm-.686.26a.04.04,0,0,1,0,.025v0l.032-.031A.042.042,0,0,0,161.939,159.345Zm-1.961,1.911c-.027.033-.046.061-.065.088l.058-.077.007-.011Zm.174.421.017.015a.708.708,0,0,0,.086.079c.02.013.022.01.026.009Zm.93.74c-.035-.024-.075-.053-.119-.087q.205.17.421.327Zm.017-2.464.136-.159a.811.811,0,0,1,.051-.07A2.362,2.362,0,0,0,161.1,159.952Zm.175.771a.02.02,0,0,0-.005.023.119.119,0,0,1,.041.015Zm.388-.737c.007,0-.022-.032-.037-.049s-.013,0-.016,0l.064.065Zm.233.237a.29.29,0,0,0-.035-.035l.034.035Zm.044-.878a.04.04,0,0,1,0,.025v0l.032-.031A.042.042,0,0,0,161.939,159.345Zm.212,2.773a.3.3,0,0,1-.063-.028l.071.059S162.162,162.134,162.151,162.117Zm.475-3.033.1.156c.009.011.017.023.026.037A2.093,2.093,0,0,0,162.625,159.085Zm.206.853,0,.005a.3.3,0,0,0,.037-.039Zm.16-.259-.016-.034c-.007-.007-.01-.007-.013-.006l.026.045a.041.041,0,0,1,0,.018v0S163,159.691,162.991,159.679Zm-.84,2.439a.3.3,0,0,1-.063-.028l.071.059S162.162,162.134,162.151,162.117Zm-1.187.213q.205.17.421.327l-.3-.241C161.047,162.392,161.006,162.364,160.963,162.33Zm-.795-.638a.708.708,0,0,0,.086.079c.02.013.022.01.026.009l-.129-.1Zm-.256-.347.058-.077.007-.011h0C159.951,161.289,159.932,161.317,159.913,161.344Zm1.982-1.121a.29.29,0,0,0-.035-.035l.034.035Zm-.27-.286c-.01-.006-.013,0-.016,0l.064.065-.011-.013C161.669,159.987,161.639,159.954,161.625,159.937Zm-.356.809a.119.119,0,0,1,.041.015l-.036-.038A.02.02,0,0,0,161.269,160.746Zm-.17-.794.136-.159a.811.811,0,0,1,.051-.07A2.362,2.362,0,0,0,161.1,159.952Zm1.892-.274-.016-.034c-.007-.007-.01-.007-.013-.006l.026.045a.041.041,0,0,1,0,.018v0S163,159.691,162.991,159.679Zm-.164.264a.3.3,0,0,0,.037-.039l-.034.034Zm-.106-.7c.009.011.017.023.026.037a2.093,2.093,0,0,0-.123-.193Zm-.783.1a.04.04,0,0,1,0,.025v0l.032-.031A.042.042,0,0,0,161.939,159.345Zm4.859,3.269a.48.48,0,0,1-.035-.122c-.006-.031-.013-.07-.019-.122s-.01-.116-.021-.2c-.009-.063-.016-.133-.031-.208s-.027-.154-.048-.232c-.009-.04-.019-.079-.028-.118s-.021-.078-.031-.116l-.03-.112-.032-.1c-.01-.033-.019-.065-.027-.1l-.025-.083a.675.675,0,0,1-.026-.125c0-.031,0-.049.015-.052s.037.008.069.04c-.021-.05-.045-.1-.065-.147s-.038-.1-.059-.147-.039-.1-.057-.147l-.062-.148a1.892,1.892,0,0,0-.366-.582c-.064-.037-.1-.012-.152-.022a.268.268,0,0,1-.107-.051,1.543,1.543,0,0,1-.19-.158c-.04-.092-.065-.163-.093-.22a1.187,1.187,0,0,0-.09-.159,1.873,1.873,0,0,0-.164-.19l-.138-.133c-.056-.048-.119-.105-.2-.167.17.064.066-.057-.011-.153l-.009-.012a4.669,4.669,0,0,0-.513-.28c.032.046.071.1.116.155.023.028.048.055.074.083s.052.059.08.088c-.061.028-.12.056-.179.086a.857.857,0,0,0-.167-.125c-.035-.019-.073-.038-.112-.057a1.257,1.257,0,0,0-.125-.053l-.133-.048c-.045-.016-.092-.028-.138-.041-.091-.029-.184-.047-.269-.071-.07,0,.006.034.055.062s.072.049-.1.022c-.031-.033.006-.067-.061-.1a.486.486,0,0,0-.169.01c-.042.012-.074.026-.117.036a.406.406,0,0,1-.074.011,1.033,1.033,0,0,1-.1,0c-.041,0-.089-.006-.148-.01s-.127-.012-.208-.02c-.071-.029-.144-.059-.218-.087a3.716,3.716,0,0,0-.855.108,4.426,4.426,0,0,0-.811.286,6.263,6.263,0,0,0-1.4.914,1.09,1.09,0,0,1-.115.172c-.026.034-.055.069-.085.106s-.06.078-.091.118a2.942,2.942,0,0,0-.325.5l-.038-.012a.746.746,0,0,1-.065.155c-.015.027-.032.055-.049.083s-.034.058-.053.087l-.056.089c-.018.03-.035.061-.051.091s-.032.06-.048.09a.831.831,0,0,0-.037.088c-.038.064-.076.129-.108.2-.02.016-.018-.013-.008-.065s.036-.123.057-.192c.01-.035.022-.068.032-.1a.579.579,0,0,0,.019-.075c.006-.039,0-.052-.045-.014a1.379,1.379,0,0,0-.077.157c-.021.053-.039.1-.055.154s-.027.1-.039.15l-.017.073c-.006.024-.009.048-.013.073-.009.048-.017.1-.026.143s-.015.095-.024.142c-.02.095-.036.191-.067.292s-.023.173-.028.229a1,1,0,0,0,0,.132c0,.035,0,.066.007.1s.007.081.009.143c.023.063.026-.082.055-.056,0,.056,0,.108,0,.158s0,.1,0,.141c0,.089,0,.167,0,.239s0,.137.006.2c0,.031,0,.061,0,.09s0,.058.006.086c.005.057.009.113.016.171s.019.118.031.183.033.134.055.212c.01.039.026.079.041.121s.031.088.05.135a.963.963,0,0,1,.053.1l.04.077c.013.026.028.049.04.068.024.038.039.059.034.035s-.034-.09-.083-.232c-.042-.085-.074-.174-.111-.261-.015-.063-.025-.128-.036-.191.015.052.031.117.052.181l.065.188c.047.113.082.195.081.17a.807.807,0,0,0,.047.14c.012.028.024.058.038.089s.031.062.048.095l.052.1c.019.033.039.065.058.1l.058.095.058.087c.073.112.14.194.157.222s-.008,0-.109-.117c-.05-.081-.092-.146-.126-.2s-.061-.108-.089-.153-.049-.088-.075-.132l-.041-.067c-.014-.023-.027-.048-.042-.075l.034.073.036.07c.025.047.047.094.073.139.052.09.1.18.159.263a4.32,4.32,0,0,0,.355.476c.065.072.127.145.195.211.033.033.066.068.1.1l.1.094.051.046.053.044.106.087.109.081c.036.026.072.055.109.078.06.036.118.075.179.111.005.006.081.056.2.122.058.031.125.069.2.1l.113.053c.038.018.077.037.117.052.069.026.146.061.2.079a.4.4,0,0,0,.07.023h0c-.006,0-.067-.022-.149-.055l-.163-.067c-.058-.026-.116-.054-.172-.08-.217-.11-.368-.2-.1-.055a4.411,4.411,0,0,0,1.108.4,4.632,4.632,0,0,0,.532.082l-.079-.008a4.94,4.94,0,0,1-.519-.088,4.711,4.711,0,0,1-.963-.332,4.6,4.6,0,0,1-.88-.545,4.848,4.848,0,0,1-.737-.717q-.125-.153-.239-.314a4.663,4.663,0,0,0,3.849,2.025h0a4.7,4.7,0,0,0,.685-.05l-.074.009a4.291,4.291,0,0,0,.478-.09l.081-.019.095-.028.106-.031c.037-.011.074-.025.112-.038l.117-.04.115-.046c.038-.016.077-.029.113-.046l.106-.049c.034-.016.067-.031.1-.046l.084-.044c.051-.028.093-.049.121-.066.055-.034.057-.037-.025.008l.179-.107c.054-.034.1-.066.143-.095l.061-.041.053-.039.092-.066.236-.177.1-.08.06-.05.069-.064.084-.08.1-.1.056-.061.058-.071c.041-.05.086-.1.131-.168.061-.088.151-.216.239-.357.043-.071.09-.143.128-.216l.059-.106c.018-.035.034-.069.051-.1a2.017,2.017,0,0,0,.118-.267c.011-.036-.012-.007-.085.124.009-.034.016-.059.026-.093s.026-.075.044-.144.054-.127.073-.17a.379.379,0,0,1,.04-.08c.008-.01.012,0,.007.026a.823.823,0,0,1-.038.146,1.761,1.761,0,0,0,.123-.357,2.279,2.279,0,0,0,.014-.628c0-.107,0-.213,0-.32.032-.224.047-.077.058.088s0,.344.041.172c.038-.351.006-.419-.016-.479Zm-4.944-3.244.055-.051a.425.425,0,0,0,.058-.06c.023,0,.036-.018.053-.038s.033-.039.049-.034c.013-.013.027,0,.043.012l.1-.1a.128.128,0,0,0-.081,0,.1.1,0,0,0,.022-.017c-.026.011-.107.059-.091.011.058-.05.095-.011.143-.062.018.036.088-.065.078,0l.042-.041a.124.124,0,0,0,.009-.021c-.042.023,0-.012-.025-.006l.036-.042.018-.02.025-.026c.018-.018.036-.038.054-.054l.027-.025.007-.006.005.007.01.014a.712.712,0,0,1,.042.059l.038.066.051.092a.829.829,0,0,0,.16.247c.024.057-.009.03-.026.024l.039.066-.013-.015.116.193c.015.016.036.039.025.007l-.054-.094c-.009-.025.015,0,.035.037a.221.221,0,0,0,.045.079h0c0,.007.018.037.026.055l.028.038a.056.056,0,0,1,.007.013.053.053,0,0,1,.005.022.12.12,0,0,1-.007.045c0-.027-.006-.013-.017.009a.252.252,0,0,1-.045.065.28.28,0,0,0,.021-.041.2.2,0,0,1-.031.048l-.051.054.005,0-.034.039.06-.057.026-.025a.2.2,0,0,0,.023-.027.22.22,0,0,1-.029.036l-.027.03-.05.054a1.153,1.153,0,0,1-.11.1h0c-.047.042-.055.052-.112.1l0,0,.006-.005-.006,0-.03.027,0,0-.032.028,0,0c.069-.062.1-.094.15-.143l.012-.006.031-.03a.041.041,0,0,0,.013-.01c.021-.022-.017.014-.017.01l.037-.039c-.068.066-.142.135-.225.216l-.083-.1a.092.092,0,0,0,.027.059c-.01-.008-.015.007-.029,0,.055.042.022.085,0,.108-.048-.027-.091,0-.113-.057.01.011-.009-.055.018-.031,0-.033-.053-.059-.07-.088.021-.022.059-.016.039-.076-.036-.071-.052.03-.1-.023l.023.043c-.066-.007-.111-.118-.168-.177-.013-.069,0-.153-.059-.207.006,0,.025.01.033,0s-.022-.035-.035-.044c-.048-.015-.022.034-.049.035a.156.156,0,0,1-.086-.08v-.01s0-.009,0-.013l0-.025a.362.362,0,0,1,0-.043.106.106,0,0,1-.057-.03.142.142,0,0,1-.02-.023s-.007-.009-.007-.013Zm-1.064.891,0,0,.005-.008.022-.032a.379.379,0,0,1,.026-.032l.026-.031.038-.045c.051-.059.1-.116.156-.172a.981.981,0,0,0,.2-.249l.022-.02.014-.011c.007,0,.008,0,.007,0s-.01.032-.011.042l.031-.035.008-.009,0,0,0,0,.016.016-.016-.012s0,0,0,0l0,.005-.007.01-.005.008.017-.02.168.171c.018.011.06.045.037.008l-.081-.086c-.016-.024.016,0,.046.031a.259.259,0,0,0,.068.073h0c0,.008.028.034.042.052a.562.562,0,0,1,.084.082c-.043-.027.024.049.051.086l-.029-.026.088.089.042.038c-.047-.049-.08-.088-.111-.125.046.05.086.085.122.121a1.614,1.614,0,0,1,.111.119h0c.047.051.058.059.111.121l0,0-.006-.006,0,.006.029.032h0l.019.021c-.064-.068-.1-.1-.151-.153l-.007-.012-.033-.034s0,0-.012-.013.015.019.012.018l-.027-.026.225.229-.108.093a.1.1,0,0,0,.061-.031c-.009.011.007.015,0,.029a.068.068,0,0,1,.114-.006c-.03.051,0,.093-.062.12.009-.01-.059.013-.032-.017-.035,0-.065.059-.095.078-.022-.02-.015-.06-.079-.036-.076.042.03.052-.028.1l.046-.027c-.01.069-.128.122-.192.185a.536.536,0,0,1-.057.01l-.015,0-.019.006-.037.012a.459.459,0,0,0-.065.025.2.2,0,0,0-.03.018l-.015.012s0,0-.008,0l-.007-.006s.008,0,.013,0a.038.038,0,0,0,.006-.026c-.007.005-.015-.014-.023-.019a.107.107,0,0,0-.024-.017c-.022,0-.024.009-.02.025s.012.035,0,.039a.269.269,0,0,1-.072-.045.367.367,0,0,1-.039-.038.119.119,0,0,1-.014-.017l-.01-.017-.008-.084c-.076.01-.078-.085-.154-.138.01-.033-.083-.075-.074-.108-.015-.015,0-.03.013-.046l-.107-.114a.138.138,0,0,0,0,.084.1.1,0,0,0-.018-.024c.012.028.065.116.014.1-.053-.064-.014-.1-.068-.153.035-.018-.072-.1,0-.081l-.043-.046a.148.148,0,0,0-.025-.013c.014.024.011.023,0,.019s-.016-.011-.01.007c-.02-.018-.04-.037-.059-.056l-.015-.015S160.789,160.262,160.79,160.261Zm.6,2.968-.015.019c-.053.065-.106.128-.175.2h0c-.075.086-.088.1-.177.2l0,0,.007-.009-.008.009-.046.053-.052.06.008-.009h0l-.189-.14a.25.25,0,0,0,.081.083c-.019-.011-.016.009-.036,0,.106.059.092.114.078.144-.086-.039-.125,0-.2-.085h0c.025.018-.053-.075,0-.039-.025-.044-.117-.083-.161-.121.012-.028.069-.018,0-.1-.1-.1-.049.037-.151-.037l.063.058c-.1-.014-.239-.165-.361-.247a.851.851,0,0,0-.233-.281c.009,0,.042.016.044,0a.205.205,0,0,0-.08-.061c-.077-.023-.006.044-.042.044a.49.49,0,0,1-.178-.113l-.057-.107c-.1.006-.152-.114-.283-.187a.064.064,0,0,0-.026-.034l-.025-.018-.03-.02c-.026-.018-.054-.036-.073-.052a.234.234,0,0,1-.023-.022l-.006-.009s.006-.006.008-.009a.07.07,0,0,1,.067-.045l.128-.225a.206.206,0,0,0-.1.059.248.248,0,0,0,.027-.042c-.016.018-.05.06-.076.087l-.018.017a.1.1,0,0,1-.019.017s-.007,0-.007,0a.047.047,0,0,1,0-.014l0-.011,0-.007c.073-.117.118-.088.178-.2v0c.022.04.111-.163.1-.059l.051-.09a.349.349,0,0,0,.012-.039c-.053.066.006-.02-.031.01l.023-.045.028-.053.033-.06.017-.03,0-.008,0,0,0,0,.013.009.054.037.055.042.078.061c.1.08.2.16.295.24a2.66,2.66,0,0,0,.42.32c.081.074.016.042-.011.036l.108.086-.075-.048.344.271c.027.014.109.071.057.018l-.152-.122c-.034-.033.022,0,.077.047a.708.708,0,0,0,.127.1h0a.763.763,0,0,0,.082.073,1.507,1.507,0,0,1,.154.118c-.071-.041.057.067.111.118l-.062-.045.171.134.038.027.02.015,0,0,0,0-.008.01.008-.009s.008-.006,0-.009l-.018-.015-.03-.024-.054-.045-.094-.081c.043.035.082.066.119.094l.053.041.033.026C161.4,163.215,161.392,163.222,161.389,163.229Zm.446-.16-.089-.07q-.176-.141-.342-.281a3.583,3.583,0,0,0-.486-.376c-.095-.086-.021-.046.01-.037l-.125-.1.072.048-.385-.306c-.029-.015-.129-.088-.067-.026l.176.143c.04.039-.024-.006-.088-.057a.943.943,0,0,0-.147-.121h0a.982.982,0,0,0-.1-.085,2.087,2.087,0,0,1-.178-.138c.081.05-.067-.076-.131-.135l.08.059-.194-.154.013-.017,0,0,.062-.088-.056.073-.015.019-.007.01.009.008.033.028.11.095-.072-.058-.068-.054-.012-.009-.006,0s-.005,0,0,0,.01-.016.016-.023l.024-.033.044-.06c.058-.079.116-.155.19-.247h0c.081-.1.1-.126.192-.247l.006-.007-.009.013.009-.011.051-.066,0,0,.024-.031c-.1.131-.15.2-.234.313l-.018.019-.054.072a.175.175,0,0,0-.021.026c-.037.051.03-.035.028-.03l-.068.094.4-.528.208.172a.325.325,0,0,0-.089-.1c.022.015.018-.007.041,0-.118-.077-.1-.134-.089-.164.1.054.137.021.221.117-.026-.02.06.087,0,.041.029.05.13.1.179.152-.013.028-.076.009,0,.105.115.118.054-.032.166.06l-.071-.071c.106.028.266.208.4.313a1.116,1.116,0,0,0,.262.331c-.01,0-.047-.023-.049-.007a.271.271,0,0,0,.09.076c.085.035.006-.045.045-.041a.66.66,0,0,1,.2.145l.065.121c.105.007.17.142.315.238,0,.023.046.054.089.087l.031.024.038.032c.023.02.038.037.038.047a.1.1,0,0,1,.02.021s0,.006-.005.008l-.01.007a.109.109,0,0,1-.039.011l-.172.245a.249.249,0,0,0,.116-.064.348.348,0,0,0-.036.046c.02-.019.062-.065.094-.095l.006-.005.008-.009.016-.016a.129.129,0,0,1,.023-.019c.011-.006.011,0-.01.044l-.023.03-.016.019a.4.4,0,0,1-.03.03.547.547,0,0,1-.052.04.351.351,0,0,0-.1.107h0c-.016-.045-.144.179-.112.064l-.069.1c-.007.014-.014.029-.02.044.067-.072-.009.022.035-.011l-.031.049-.034.052-.044.066-.023.033c0,.01-.009,0-.014,0l-.016-.011c-.021-.014-.042-.029-.063-.047Zm3.269-.918a1.522,1.522,0,0,1-.052.18l-.122.315c-.076.2-.147.4-.236.648h0c-.1.277-.111.331-.227.654l-.006.015.011-.032-.012.032-.062.175-.058.157c.148-.4.2-.593.311-.906l.022-.053.065-.189c0-.013,0-.007.026-.07.044-.131-.036.1-.034.085.034-.1.068-.2.1-.3-.172.475-.322.96-.494,1.436h0l.658.749c-.121.126-.265.265-.422.415a1.411,1.411,0,0,0,.213-.182c-.038.041,0,.025-.034.067.211-.227.286-.233.322-.223a1.983,1.983,0,0,1-.35.418c.039-.04-.184.135-.066.017-.1.068-.267.256-.38.355-.033-.009.046-.12-.166.048a.966.966,0,0,0-.125.121c-.022.027-.023.039-.023.051a.071.071,0,0,1-.019.052.641.641,0,0,1-.054.062l-.021.022,0,0h0l-.006-.005-.013-.011-.062-.055.065.061.016.016s0,0,0,0l0,0,.008-.007.032-.029.133-.119c-.03.036-.067.077-.112.124l-.035.036-.018.018-.009.009s0,.005,0,0l0,0-.081-.068c-.028-.024-.058-.049-.088-.078l-.074-.07q-.053-.051-.108-.108c-.146-.15-.3-.32-.429-.458a6.019,6.019,0,0,0-.548-.737c.016.013.083.076.081.053a1.106,1.106,0,0,0-.13-.155.1.1,0,0,1-.031-.055.371.371,0,0,1-.011-.06.07.07,0,0,0-.006-.024c0-.006-.011,0-.017.02-.015.035-.012.1-.029.051a.273.273,0,0,1,0-.047c0-.013,0-.025,0-.038a.458.458,0,0,1,.012-.072.39.39,0,0,1,.026-.074l.01-.02.008-.014.016-.028a2.321,2.321,0,0,1,.162-.248l.2-.209a5.326,5.326,0,0,1,.458-.742c.066-.047.245-.4.309-.45a.184.184,0,0,1,.054-.063.039.039,0,0,1,.032,0,.609.609,0,0,0,.057-.346c-.014-.1-.032-.2-.052-.306a.972.972,0,0,0-.015.27c0-.046-.01-.093-.017-.125l.011.132c0,.013,0,.026,0,.04s0,.024,0,.036a.509.509,0,0,1-.008.067.219.219,0,0,1-.027.081c-.008.009-.009,0-.009-.048a.716.716,0,0,0,.008-.1c0-.014,0-.026,0-.04s0-.029,0-.042c0-.054,0-.1,0-.138a1.376,1.376,0,0,0-.039-.324l0,0c.051.051-.091-.5,0-.266q-.024-.113-.048-.228l-.024.018-.081.068c.042-.025.057-.033.061-.035s0,0-.011.012-.04.033-.006.019l-.038.028-.02.015-.026.018c-.036.025-.072.048-.109.071-.073.046-.145.09-.215.136l-.1.071-.065.046-.036.026s0,0,0,0l0,0-.026-.021-.206-.178-.187-.163-.1-.085-.067-.059-.016-.015-.008-.007s0,0,0,0l0,0,0,0,.033-.029.067-.058.048-.041.093-.078.186-.154c.381-.29.7-.574,1.037-.88.22-.176.09-.047.049,0l.138-.117.019-.016.009-.008s.007-.008.009,0l.027.042.049.077-.051-.075-.026-.038v0l0,0,0,0-.009.008-.017.016-.049.045.082-.07c.189.295.365.589.547.874.044.058.2.279.1.113-.09-.14-.178-.282-.266-.424-.059-.107.035.037.131.189a3.452,3.452,0,0,0,.226.354h0c.008.022.1.158.155.234s.092.119.131.176a1.144,1.144,0,0,1,.061.1,1.067,1.067,0,0,1,.067.155c-.022-.049-.029-.06-.026-.045s.017.052.03.1a.905.905,0,0,1,.016.356.909.909,0,0,0,0-.2,1.136,1.136,0,0,1-.1.548l-.007.018.008-.018q-.043.111-.085.223c.051-.134.1-.248.141-.358a1.086,1.086,0,0,0,.06-.316A1.021,1.021,0,0,1,165.1,162.15Zm-2.111-2.448v0s0-.007,0-.02l-.016-.034c-.007-.007-.01-.007-.013-.006l.026.045A.041.041,0,0,1,162.992,159.7Zm-.128.2-.034.034,0,.005A.3.3,0,0,0,162.864,159.9Zm-.117-.626a2.093,2.093,0,0,0-.123-.193l.1.156C162.73,159.252,162.739,159.264,162.748,159.278Zm-.6,2.84a.3.3,0,0,1-.063-.028l.071.059S162.162,162.134,162.151,162.117Zm-.212-2.773a.04.04,0,0,1,0,.025v0l.032-.031A.042.042,0,0,0,161.939,159.345Zm-.044.878a.29.29,0,0,0-.035-.035l.034.035Zm-.233-.237c.007,0-.022-.032-.037-.049s-.013,0-.016,0l.064.065Zm-.347,3.311c.02-.022.036-.042.05-.061l-.049.059S161.314,163.3,161.315,163.3Zm-.046-2.551a.119.119,0,0,1,.041.015l-.036-.038A.02.02,0,0,0,161.269,160.746Zm-.086,2.715.049-.06a.149.149,0,0,0,.02-.021c.033-.042-.027.029-.026.024l.044-.055-.343.412c.109-.126.154-.188.239-.285Zm.1-3.738a2.362,2.362,0,0,0-.187.229l.136-.159A.811.811,0,0,1,161.286,159.723Zm-.323,2.607q.205.17.421.327l-.3-.241C161.047,162.392,161.006,162.364,160.963,162.33Zm-.005.546c-.017-.01-.019-.008-.023-.006l.125.1-.028-.024C161.041,162.947,160.986,162.9,160.958,162.876Zm-.789-1.184a.708.708,0,0,0,.086.079c.02.013.022.01.026.009l-.129-.1Zm.059.621c.034.023.075.05.12.084q-.19-.157-.392-.3Zm-.315-.969.058-.077.007-.011h0C159.951,161.289,159.932,161.317,159.913,161.344Zm-.557,1.282a.243.243,0,0,1,.06.021l-.066-.049S159.346,162.611,159.356,162.626Zm2.582-3.281a.04.04,0,0,1,0,.025v0l.032-.031A.042.042,0,0,0,161.939,159.345Zm.686-.26.1.156c.009.011.017.023.026.037A2.093,2.093,0,0,0,162.625,159.085Zm.206.853,0,.005a.3.3,0,0,0,.037-.039Zm.16-.259-.016-.034c-.007-.007-.01-.007-.013-.006l.026.045a.041.041,0,0,1,0,.018v0S163,159.691,162.991,159.679Zm-1.892.274.136-.159a.811.811,0,0,1,.051-.07A2.362,2.362,0,0,0,161.1,159.952Zm.175.771a.02.02,0,0,0-.005.023.119.119,0,0,1,.041.015Zm.388-.737c.007,0-.022-.032-.037-.049s-.013,0-.016,0l.064.065Zm.233.237a.29.29,0,0,0-.035-.035l.034.035Zm1.1-.544-.016-.034c-.007-.007-.01-.007-.013-.006l.026.045a.041.041,0,0,1,0,.018v0S163,159.691,162.991,159.679Zm-.16.259,0,.005a.3.3,0,0,0,.037-.039Zm-.206-.853.1.156c.009.011.017.023.026.037A2.093,2.093,0,0,0,162.625,159.085Zm-.686.26a.04.04,0,0,1,0,.025v0l.032-.031A.042.042,0,0,0,161.939,159.345Zm-.044.878a.29.29,0,0,0-.035-.035l.034.035Zm-.233-.237c.007,0-.022-.032-.037-.049s-.013,0-.016,0l.064.065Zm-.388.737a.02.02,0,0,0-.005.023.119.119,0,0,1,.041.015Zm-.175-.771.136-.159a.811.811,0,0,1,.051-.07A2.362,2.362,0,0,0,161.1,159.952Z" transform="translate(-155.96 -156.463)" fill="#ffec30"/>
    <path id="Tracé_6788" data-name="Tracé 6788" d="M11.314,10.5h0A6.235,6.235,0,0,0,9.809,8.967h0a6.177,6.177,0,0,0-1.244-.69h0A6.181,6.181,0,0,0,6.2,7.81q-.144,0-.286.007h0a6.167,6.167,0,0,0-2.27.543h0a6.148,6.148,0,0,0-.661.35h0a6.22,6.22,0,0,0-1.131.882h0q-.217.213-.412.447h0q-.153.183-.291.377h0q-.115.161-.219.329A6.22,6.22,0,0,0,.181,15.5h0a6.209,6.209,0,0,0,8.073,4.361h0q.244-.086.479-.191a6.227,6.227,0,0,0,2.854-2.589h0a6.174,6.174,0,0,0,.465-1.019h0a6.156,6.156,0,0,0,.179-.611v0a6.216,6.216,0,0,0-.92-4.952Zm-.823,7.156c-.113.065-.19.109-.26.146a1.956,1.956,0,0,0-.194.112c-.068.041-.145.095-.255.17l-.194.127c-.077.045-.163.1-.266.157.15-.153-.025-.08-.158-.044l-.01,0a5.291,5.291,0,0,1-.586.321,1,1,0,0,0,.214-.01c.042-.005.085-.012.13-.021s.089-.022.135-.036c-.014.07-.029.142-.045.214a1.448,1.448,0,0,0-.252.09c-.048.018-.1.039-.149.061s-.1.047-.159.069l-.167.071c-.056.024-.115.044-.172.066-.114.046-.23.08-.339.113-.079.041.025.025.1.018s.114,0-.1.078c-.055-.011-.03-.061-.126-.055a1.035,1.035,0,0,0-.2.093c-.046.027-.081.054-.131.08a.767.767,0,0,1-.091.041,1.059,1.059,0,0,1-.135.036,1.9,1.9,0,0,1-.2.031c-.08.006-.175.013-.286.015-.1-.025-.2-.048-.3-.076a6.441,6.441,0,0,1-1.141-.1,5.5,5.5,0,0,1-1.11-.325,4.885,4.885,0,0,1-1-.557,4.416,4.416,0,0,1-.809-.757,1.059,1.059,0,0,1-.207-.179c-.039-.042-.08-.086-.122-.135l-.124-.157c-.044-.053-.082-.113-.122-.17s-.081-.115-.117-.173L1.437,16.8c-.033-.055-.065-.107-.095-.154l.029-.028a.769.769,0,0,1-.119-.188c-.018-.037-.035-.076-.052-.117s-.03-.084-.045-.127-.029-.087-.043-.13l-.037-.131L1,15.682l-.024-.141c-.009-.047-.013-.095-.019-.141.007-.03.023,0,.045.066l.086.238c.015.043.033.084.049.12a.793.793,0,0,0,.045.086c.026.041.043.045.042-.022-.019-.072-.043-.139-.061-.205s-.04-.129-.061-.19l-.057-.18-.029-.087c-.01-.029-.016-.058-.025-.087l-.047-.172c-.013-.057-.023-.115-.034-.174a2.008,2.008,0,0,1-.028-.365c-.005-.123-.007-.211-.013-.28s0-.116-.009-.159-.008-.079-.012-.124a1.715,1.715,0,0,1,0-.175c-.02-.079-.03.1-.058.066,0-.07.008-.135.013-.2s.015-.119.023-.173A2.946,2.946,0,0,1,.88,13.1c.017-.086.041-.163.063-.234l.031-.1c.01-.034.023-.066.035-.1.024-.065.045-.128.07-.193s.052-.132.079-.206l.1-.24c.016-.045.038-.09.058-.139s.041-.1.066-.155a1.23,1.23,0,0,1,.045-.12l.038-.095.037-.085c.021-.049.031-.078.013-.055a1.809,1.809,0,0,0-.15.253c-.049.1-.087.21-.128.316-.036.069-.068.14-.1.21.024-.062.052-.137.084-.213l.1-.22c.065-.133.11-.23.09-.208.025-.037.06-.087.1-.149l.058-.1.067-.107.07-.113.075-.112.073-.109.074-.1a3.209,3.209,0,0,1,.2-.252c.027-.029,0,.009-.1.156-.068.088-.128.159-.175.223s-.085.12-.12.172-.062.1-.092.154l-.045.081c-.015.028-.029.059-.044.092l.046-.082.049-.079c.033-.052.065-.105.1-.156.07-.1.137-.2.211-.293.037-.047.07-.095.109-.139l.112-.133c.036-.045.077-.085.115-.127s.075-.084.116-.123a5.779,5.779,0,0,1,.992-.81c.067-.044.134-.089.2-.131.009,0,.1-.052.234-.122.068-.032.145-.073.229-.111l.13-.057c.044-.02.089-.04.135-.056l.122-.047c.04-.016.078-.03.111-.041a.469.469,0,0,0,.078-.027c-.016,0-.082.025-.169.057l-.188.071c-.066.028-.134.058-.2.086s-.121.058-.169.08l-.1.049c-.037.017,0,0,.153-.08.051-.026.1-.048.156-.071s.1-.046.158-.068l.161-.061.08-.03.081-.026.161-.052.161-.044.08-.022.08-.018.158-.035q.207-.042.417-.068A5.35,5.35,0,0,1,7.624,8.7l.032.007.074.021.058.016.1.027c.042.012.084.027.128.042l.133.044.132.051c.044.017.088.033.129.051l.121.053c.039.018.077.033.112.05l.1.048c.059.03.108.052.141.07.065.035.07.035-.023-.019l.21.115c.063.036.117.071.168.1l.071.045.063.043.106.075c.032.022.06.044.084.064l.068.055c.042.034.078.062.111.094l.107.1c.02.018.042.037.065.06l.077.075.1.091.114.117.066.068.071.078c.049.054.105.113.162.182a3.707,3.707,0,0,1,.3.391c.053.08.109.162.156.245l.071.121c.022.04.042.079.061.115.08.146.129.265.153.3s.014,0-.047-.168c.022.034.038.06.059.1l.036.063c.015.025.031.055.05.093.032.084.058.154.074.207a.53.53,0,0,1,.022.1c0,.015-.008.01-.023-.02s-.037-.082-.074-.159c-.006.009.089.251.139.418.109.272.19.455.279.693.027.127.06.255.08.385.007.28-.034.1-.071-.095s-.093-.4-.085-.191c.015.1.028.185.035.252s.017.117.025.157a.757.757,0,0,0,.041.153.676.676,0,0,1,.042.147c.006.038.009.086.013.15a2.082,2.082,0,0,1,0,.245c0,.078,0,.167-.012.261s-.013.194-.028.295q-.01.076-.02.152c-.007.05-.018.1-.027.149l-.029.143c-.012.046-.023.09-.035.133l-.034.121c-.012.038-.025.072-.037.1a1.046,1.046,0,0,1-.066.145c-.019.032-.037.047-.05.04s-.018-.034-.022-.088a1.893,1.893,0,0,1-.062.185,1.716,1.716,0,0,1-.076.177c-.028.057-.057.114-.087.171l-.1.166c-.137.221-.287.441-.44.7-.025.083,0,.107,0,.171a.381.381,0,0,1-.042.139,1.688,1.688,0,0,1-.176.265Z" transform="translate(0 -7.81)" fill="#ffec30"/>
  </g>
  <g id="Groupe_6303" data-name="Groupe 6303" transform="translate(4.382 2.566)">
    <path id="Tracé_6789" data-name="Tracé 6789" d="M764.43,769.9l.012-.012Z" transform="translate(-759.983 -763.653)" fill="#ffec30"/>
    <path id="Tracé_6790" data-name="Tracé 6790" d="M758.58,793.585l0,0-.005,0h0Z" transform="translate(-754.2 -787.069)" fill="#ffec30"/>
    <path id="Tracé_6793" data-name="Tracé 6793" d="M394.356,380.154l-.005,0Z" transform="translate(-394.177 -378.415)" fill="#ffec30"/>
    <path id="Tracé_6794" data-name="Tracé 6794" d="M409.771,376.681h0Z" transform="translate(-409.419 -374.985)" fill="#ffec30"/>
    <path id="Tracé_6798" data-name="Tracé 6798" d="M379.4,379.84l0,.006Z" transform="translate(-379.4 -378.108)" fill="#ffec30"/>
    <path id="Tracé_6799" data-name="Tracé 6799" d="M383.116,372.7l-.016.02Z" transform="translate(-383.057 -371.042)" fill="#ffec30"/>
    <path id="Tracé_6800" data-name="Tracé 6800" d="M430,639.71h0Z" transform="translate(-429.415 -634.977)" fill="#ffec30"/>
    <path id="Tracé_6801" data-name="Tracé 6801" d="M420.65,634.77l.005,0Z" transform="translate(-420.174 -630.094)" fill="#ffec30"/>
    <path id="Tracé_6802" data-name="Tracé 6802" d="M398.294,534.823Z" transform="translate(-398.033 -531.268)" fill="#ffec30"/>
    <path id="Tracé_6803" data-name="Tracé 6803" d="M467.1,588.982l0,0h0Z" transform="translate(-466.087 -584.833)" fill="#ffec30"/>
    <path id="Tracé_6805" data-name="Tracé 6805" d="M433.781,634.48l-.009.01h0Z" transform="translate(-433.142 -629.807)" fill="#ffec30"/>
    <path id="Tracé_6806" data-name="Tracé 6806" d="M536.582,373.861h0l0,0h0Z" transform="translate(-534.764 -372.197)" fill="#ffec30"/>
    <path id="Tracé_6807" data-name="Tracé 6807" d="M431.29,352.9h0v0Z" transform="translate(-430.691 -351.48)" fill="#ffec30"/>
    <path id="Tracé_6810" data-name="Tracé 6810" d="M509.521,326.7h0Z" transform="translate(-508.017 -325.582)" fill="#ffec30"/>
    <path id="Tracé_6811" data-name="Tracé 6811" d="M533.346,352.877l-.006-.007Z" transform="translate(-531.562 -351.45)" fill="#ffec30"/>
    <path id="Tracé_6812" data-name="Tracé 6812" d="M556.21,330.2h0Z" transform="translate(-554.168 -329.042)" fill="#ffec30"/>
    <path id="Tracé_6813" data-name="Tracé 6813" d="M540.92,229.93h0Z" transform="translate(-539.054 -229.93)" fill="#ffec30"/>
  </g>
</svg>
